<?xml version="1.0" encoding="UTF-8" standalone="no"?>
<!-- Created with Inkscape (http://www.inkscape.org/) -->

<svg
   width="120"
   height="120"
   viewBox="0 0 31.749999 31.75"
   version="1.1"
   id="svg1"
   xml:space="preserve"
   inkscape:export-filename="ios-icon-144px.svg"
   inkscape:export-xdpi="96"
   inkscape:export-ydpi="96"
   xmlns:inkscape="http://www.inkscape.org/namespaces/inkscape"
   xmlns:sodipodi="http://sodipodi.sourceforge.net/DTD/sodipodi-0.dtd"
   xmlns:xlink="http://www.w3.org/1999/xlink"
   xmlns="http://www.w3.org/2000/svg"
   xmlns:svg="http://www.w3.org/2000/svg"
   xmlns:sketch="http://www.bohemiancoding.com/sketch/ns"><sodipodi:namedview
     id="namedview1"
     pagecolor="#ffffff"
     bordercolor="#111111"
     borderopacity="1"
     inkscape:showpageshadow="0"
     inkscape:pageopacity="0"
     inkscape:pagecheckerboard="1"
     inkscape:deskcolor="#d1d1d1"
     inkscape:document-units="px"
     showgrid="false"
     showguides="false"
     inkscape:zoom="3.2251926"
     inkscape:cx="75.654397"
     inkscape:cy="102.16444"
     inkscape:window-width="1920"
     inkscape:window-height="1017"
     inkscape:window-x="1912"
     inkscape:window-y="-8"
     inkscape:window-maximized="1"
     inkscape:current-layer="layer1"><inkscape:grid
       id="grid1"
       units="mm"
       originx="0"
       originy="0"
       spacingx="0.99999998"
       spacingy="1"
       empcolor="#0099e5"
       empopacity="0.30196078"
       color="#0099e5"
       opacity="0.14901961"
       empspacing="5"
       dotted="false"
       gridanglex="30"
       gridanglez="30"
       visible="false" /><sodipodi:guide
       position="0,38.1"
       orientation="0,180"
       id="guide1"
       inkscape:locked="false" /><sodipodi:guide
       position="47.625,38.1"
       orientation="180,0"
       id="guide2"
       inkscape:locked="false" /><sodipodi:guide
       position="47.625,-9.5249999"
       orientation="0,-180"
       id="guide3"
       inkscape:locked="false" /><sodipodi:guide
       position="0,-9.5249999"
       orientation="-180,0"
       id="guide4"
       inkscape:locked="false" /><sodipodi:guide
       position="23.8125,24.172473"
       orientation="-1,0"
       id="guide6"
       inkscape:locked="false"
       inkscape:label=""
       inkscape:color="rgb(192,28,40)" /><sodipodi:guide
       position="16.821559,14.2875"
       orientation="0,1"
       id="guide7"
       inkscape:locked="false"
       inkscape:label=""
       inkscape:color="rgb(192,28,40)" /><sodipodi:guide
       position="22.754166,16.74081"
       orientation="-1,0"
       id="guide8"
       inkscape:locked="false"
       inkscape:label=""
       inkscape:color="rgb(0,134,229)" /><sodipodi:guide
       position="24.870833,22.368381"
       orientation="-1,0"
       id="guide9"
       inkscape:locked="false"
       inkscape:label=""
       inkscape:color="rgb(0,134,229)" /><sodipodi:guide
       position="15.34792,13.229166"
       orientation="0,1"
       id="guide11"
       inkscape:locked="false"
       inkscape:label=""
       inkscape:color="rgb(0,134,229)" /><sodipodi:guide
       position="1.0583333,29.594694"
       orientation="-1,0"
       id="guide12"
       inkscape:locked="false"
       inkscape:label=""
       inkscape:color="rgb(0,134,229)" /><sodipodi:guide
       position="46.566666,28.187801"
       orientation="-1,0"
       id="guide13"
       inkscape:locked="false"
       inkscape:label=""
       inkscape:color="rgb(0,134,229)" /><sodipodi:guide
       position="8.7611045,37.041666"
       orientation="0,1"
       id="guide14"
       inkscape:locked="false"
       inkscape:label=""
       inkscape:color="rgb(0,134,229)" /><sodipodi:guide
       position="14.132877,-8.4666666"
       orientation="0,1"
       id="guide15"
       inkscape:locked="false"
       inkscape:label=""
       inkscape:color="rgb(0,134,229)" /></sodipodi:namedview><defs
     id="defs1"><linearGradient
       id="linearGradient16"
       inkscape:collect="always"><stop
         style="stop-color:#3e5151;stop-opacity:1;"
         offset="0"
         id="stop16" /><stop
         style="stop-color:#272729;stop-opacity:1;"
         offset="0"
         id="stop17" /></linearGradient><linearGradient
       inkscape:collect="always"
       xlink:href="#linearGradient16"
       id="linearGradient17"
       x1="-3.6175394"
       y1="24.327953"
       x2="52.092571"
       y2="24.327953"
       gradientUnits="userSpaceOnUse"
       gradientTransform="matrix(0.5772549,0,0,0.58013035,1.9195901,1.8468524)" /></defs><g
     inkscape:label="Calque 1"
     inkscape:groupmode="layer"
     id="layer1"><rect
       style="fill:url(#linearGradient17);fill-opacity:1;stroke-width:0.103586"
       id="rect16"
       width="32.158928"
       height="32.214191"
       x="-0.16865282"
       y="-0.14685972" /><rect
       style="fill:#e5e5e5;fill-opacity:1;stroke-width:0.223949"
       id="rect15"
       width="14.539533"
       height="16.519623"
       x="8.4888535"
       y="7.2924409" /><path
       d="m 20.986323,16.861392 h -4.224286 v 4.224293 c 0,0.464672 -0.377654,0.844854 -0.844862,0.844854 -0.467208,0 -0.844858,-0.380182 -0.844858,-0.844854 v -4.224293 h -4.224286 c -0.467209,0 -0.84486,-0.380183 -0.84486,-0.844855 0,-0.464672 0.377651,-0.84486 0.84486,-0.84486 h 4.224286 v -4.224292 c 0,-0.464669 0.37765,-0.844854 0.844858,-0.844854 0.467208,0 0.844862,0.380185 0.844862,0.844854 v 4.224292 h 4.224286 c 0.467204,0 0.844857,0.380188 0.844857,0.84486 0,0.464672 -0.377653,0.844855 -0.844857,0.844855 z M 15.917175,2.4988114 c -7.466009,0 -13.5177249,6.049178 -13.5177249,13.5177256 0,7.468542 6.0517159,13.517721 13.5177249,13.517721 7.466007,0 13.517723,-6.049179 13.517723,-13.517721 0,-7.4685476 -6.051716,-13.5177257 -13.517723,-13.5177256 z"
       id="plus-circle"
       sketch:type="MSShapeGroup"
       style="fill:#606060;fill-opacity:1;fill-rule:evenodd;stroke:none;stroke-width:0.844866" /><g
       style="fill:#0e8904;fill-opacity:1"
       id="g1"
       transform="matrix(0.48463388,0,0,0.48463388,18.90259,18.966706)"><rect
         style="fill:#e5e5e5;fill-opacity:1;stroke-width:0.676535"
         id="rect1"
         width="15.023067"
         height="13.286296"
         x="8.4233379"
         y="9.1180468"
         transform="matrix(0.64985745,0,0,0.64985745,1.6022739,1.6410138)" /><path
         fill-rule="evenodd"
         clip-rule="evenodd"
         d="M 22,12 C 22,17.5228 17.5228,22 12,22 6.47715,22 2,17.5228 2,12 2,6.47715 6.47715,2 12,2 17.5228,2 22,6.47715 22,12 Z M 16.0303,8.96967 c 0.2929,0.29289 0.2929,0.76777 0,1.06063 l -5,5 c -0.2929,0.2929 -0.7677,0.2929 -1.06063,0 l -2,-2 c -0.29289,-0.2929 -0.29289,-0.7677 0,-1.0606 0.29289,-0.2929 0.76777,-0.2929 1.06066,0 L 10.5,13.4393 12.7348,11.2045 14.9697,8.96967 c 0.2929,-0.29289 0.7677,-0.29289 1.0606,0 z"
         fill="#1c274c"
         id="path1"
         style="fill:#0c7104;fill-opacity:1" /></g></g></svg>
