<?xml version="1.0" encoding="UTF-8" standalone="no"?>
<!-- Created with Inkscape (http://www.inkscape.org/) -->

<svg
   width="180"
   height="180"
   viewBox="0 0 47.624999 47.625"
   version="1.1"
   id="svg1"
   xml:space="preserve"
   xmlns:inkscape="http://www.inkscape.org/namespaces/inkscape"
   xmlns:sodipodi="http://sodipodi.sourceforge.net/DTD/sodipodi-0.dtd"
   xmlns:xlink="http://www.w3.org/1999/xlink"
   xmlns="http://www.w3.org/2000/svg"
   xmlns:svg="http://www.w3.org/2000/svg"
   xmlns:sketch="http://www.bohemiancoding.com/sketch/ns"><sodipodi:namedview
     id="namedview1"
     pagecolor="#ffffff"
     bordercolor="#111111"
     borderopacity="1"
     inkscape:showpageshadow="0"
     inkscape:pageopacity="0"
     inkscape:pagecheckerboard="1"
     inkscape:deskcolor="#d1d1d1"
     inkscape:document-units="px"
     showgrid="false"
     showguides="false"
     inkscape:zoom="3.2251926"
     inkscape:cx="75.654397"
     inkscape:cy="102.16444"
     inkscape:window-width="1920"
     inkscape:window-height="1017"
     inkscape:window-x="1912"
     inkscape:window-y="-8"
     inkscape:window-maximized="1"
     inkscape:current-layer="layer1"><inkscape:grid
       id="grid1"
       units="mm"
       originx="0"
       originy="0"
       spacingx="0.99999998"
       spacingy="1"
       empcolor="#0099e5"
       empopacity="0.30196078"
       color="#0099e5"
       opacity="0.14901961"
       empspacing="5"
       dotted="false"
       gridanglex="30"
       gridanglez="30"
       visible="false" /><sodipodi:guide
       position="0,47.625"
       orientation="0,180"
       id="guide1"
       inkscape:locked="false" /><sodipodi:guide
       position="47.625,47.625"
       orientation="180,0"
       id="guide2"
       inkscape:locked="false" /><sodipodi:guide
       position="47.625,0"
       orientation="0,-180"
       id="guide3"
       inkscape:locked="false" /><sodipodi:guide
       position="0,0"
       orientation="-180,0"
       id="guide4"
       inkscape:locked="false" /><sodipodi:guide
       position="23.8125,33.697473"
       orientation="-1,0"
       id="guide6"
       inkscape:locked="false"
       inkscape:label=""
       inkscape:color="rgb(192,28,40)" /><sodipodi:guide
       position="16.821559,23.8125"
       orientation="0,1"
       id="guide7"
       inkscape:locked="false"
       inkscape:label=""
       inkscape:color="rgb(192,28,40)" /><sodipodi:guide
       position="22.754166,26.26581"
       orientation="-1,0"
       id="guide8"
       inkscape:locked="false"
       inkscape:label=""
       inkscape:color="rgb(0,134,229)" /><sodipodi:guide
       position="24.870833,31.893381"
       orientation="-1,0"
       id="guide9"
       inkscape:locked="false"
       inkscape:label=""
       inkscape:color="rgb(0,134,229)" /><sodipodi:guide
       position="15.34792,22.754166"
       orientation="0,1"
       id="guide11"
       inkscape:locked="false"
       inkscape:label=""
       inkscape:color="rgb(0,134,229)" /><sodipodi:guide
       position="1.0583333,39.119694"
       orientation="-1,0"
       id="guide12"
       inkscape:locked="false"
       inkscape:label=""
       inkscape:color="rgb(0,134,229)" /><sodipodi:guide
       position="46.566666,37.712801"
       orientation="-1,0"
       id="guide13"
       inkscape:locked="false"
       inkscape:label=""
       inkscape:color="rgb(0,134,229)" /><sodipodi:guide
       position="8.7611045,46.566666"
       orientation="0,1"
       id="guide14"
       inkscape:locked="false"
       inkscape:label=""
       inkscape:color="rgb(0,134,229)" /><sodipodi:guide
       position="14.132877,1.0583333"
       orientation="0,1"
       id="guide15"
       inkscape:locked="false"
       inkscape:label=""
       inkscape:color="rgb(0,134,229)" /></sodipodi:namedview><defs
     id="defs1"><linearGradient
       id="linearGradient16"
       inkscape:collect="always"><stop
         style="stop-color:#3e5151;stop-opacity:1;"
         offset="0"
         id="stop16" /><stop
         style="stop-color:#272729;stop-opacity:1;"
         offset="0"
         id="stop17" /></linearGradient><linearGradient
       inkscape:collect="always"
       xlink:href="#linearGradient16"
       id="linearGradient17"
       x1="-3.6175394"
       y1="24.327953"
       x2="52.092571"
       y2="24.327953"
       gradientUnits="userSpaceOnUse"
       gradientTransform="matrix(0.86568601,0,0,0.86999817,2.8862732,2.6704597)" /></defs><g
     inkscape:label="Calque 1"
     inkscape:groupmode="layer"
     id="layer1"><rect
       style="fill:url(#linearGradient17);fill-opacity:1;stroke-width:0.155343"
       id="rect16"
       width="48.227463"
       height="48.310329"
       x="-0.24538016"
       y="-0.31943044" /><rect
       style="fill:#e5e5e5;fill-opacity:1;stroke-width:0.335847"
       id="rect15"
       width="21.804352"
       height="24.773815"
       x="12.737932"
       y="10.836992" /><path
       d="M 31.479887,25.187164 H 25.14489 v 6.334998 c 0,0.696848 -0.566347,1.266997 -1.266999,1.266997 -0.700653,0 -1.267001,-0.570149 -1.267001,-1.266997 v -6.334998 h -6.334995 c -0.700649,0 -1.267,-0.570153 -1.267,-1.266999 0,-0.696849 0.566351,-1.267001 1.267,-1.267001 h 6.334995 v -6.334996 c 0,-0.69685 0.566348,-1.266999 1.267001,-1.266999 0.700652,0 1.266999,0.570149 1.266999,1.266999 v 6.334996 h 6.334997 c 0.700646,0 1.266998,0.570152 1.266998,1.267001 0,0.696846 -0.566352,1.266999 -1.266998,1.266999 z M 23.877891,3.6481766 c -11.196474,0 -20.2719907,9.0717114 -20.2719907,20.2719884 0,11.200273 9.0755167,20.271985 20.2719907,20.271985 11.19647,0 20.271988,-9.071712 20.271988,-20.271985 0,-11.200277 -9.075518,-20.2719885 -20.271988,-20.2719884 z"
       id="plus-circle"
       sketch:type="MSShapeGroup"
       style="fill:#606060;fill-opacity:1;fill-rule:evenodd;stroke:none;stroke-width:1.26701" /><g
       style="fill:#0e8904;fill-opacity:1"
       id="g1"
       transform="matrix(0.72678597,0,0,0.72678597,28.354998,28.344415)"><rect
         style="fill:#e5e5e5;fill-opacity:1;stroke-width:0.676535"
         id="rect1"
         width="15.023067"
         height="13.286296"
         x="8.4233379"
         y="9.1180468"
         transform="matrix(0.64985745,0,0,0.64985745,1.6022739,1.6410138)" /><path
         fill-rule="evenodd"
         clip-rule="evenodd"
         d="M 22,12 C 22,17.5228 17.5228,22 12,22 6.47715,22 2,17.5228 2,12 2,6.47715 6.47715,2 12,2 17.5228,2 22,6.47715 22,12 Z M 16.0303,8.96967 c 0.2929,0.29289 0.2929,0.76777 0,1.06063 l -5,5 c -0.2929,0.2929 -0.7677,0.2929 -1.06063,0 l -2,-2 c -0.29289,-0.2929 -0.29289,-0.7677 0,-1.0606 0.29289,-0.2929 0.76777,-0.2929 1.06066,0 L 10.5,13.4393 12.7348,11.2045 14.9697,8.96967 c 0.2929,-0.29289 0.7677,-0.29289 1.0606,0 z"
         fill="#1c274c"
         id="path1"
         style="fill:#0c7104;fill-opacity:1" /></g></g></svg>
