<?xml version="1.0" encoding="UTF-8" standalone="no"?>
<!-- Created with Inkscape (http://www.inkscape.org/) -->

<svg
   width="152"
   height="152"
   viewBox="0 0 40.216666 40.216667"
   version="1.1"
   id="svg1"
   xml:space="preserve"
   inkscape:export-filename="ios-icon-180px.svg"
   inkscape:export-xdpi="96"
   inkscape:export-ydpi="96"
   xmlns:inkscape="http://www.inkscape.org/namespaces/inkscape"
   xmlns:sodipodi="http://sodipodi.sourceforge.net/DTD/sodipodi-0.dtd"
   xmlns:xlink="http://www.w3.org/1999/xlink"
   xmlns="http://www.w3.org/2000/svg"
   xmlns:svg="http://www.w3.org/2000/svg"
   xmlns:sketch="http://www.bohemiancoding.com/sketch/ns"><sodipodi:namedview
     id="namedview1"
     pagecolor="#ffffff"
     bordercolor="#111111"
     borderopacity="1"
     inkscape:showpageshadow="0"
     inkscape:pageopacity="0"
     inkscape:pagecheckerboard="1"
     inkscape:deskcolor="#d1d1d1"
     inkscape:document-units="px"
     showgrid="false"
     showguides="false"
     inkscape:zoom="3.2251926"
     inkscape:cx="75.654397"
     inkscape:cy="102.16444"
     inkscape:window-width="1920"
     inkscape:window-height="1017"
     inkscape:window-x="1912"
     inkscape:window-y="-8"
     inkscape:window-maximized="1"
     inkscape:current-layer="layer1"><inkscape:grid
       id="grid1"
       units="mm"
       originx="0"
       originy="0"
       spacingx="0.99999998"
       spacingy="1"
       empcolor="#0099e5"
       empopacity="0.30196078"
       color="#0099e5"
       opacity="0.14901961"
       empspacing="5"
       dotted="false"
       gridanglex="30"
       gridanglez="30"
       visible="false" /><sodipodi:guide
       position="0,47.625"
       orientation="0,180"
       id="guide1"
       inkscape:locked="false" /><sodipodi:guide
       position="47.625,47.625"
       orientation="180,0"
       id="guide2"
       inkscape:locked="false" /><sodipodi:guide
       position="47.625,0"
       orientation="0,-180"
       id="guide3"
       inkscape:locked="false" /><sodipodi:guide
       position="0,0"
       orientation="-180,0"
       id="guide4"
       inkscape:locked="false" /><sodipodi:guide
       position="23.8125,33.697473"
       orientation="-1,0"
       id="guide6"
       inkscape:locked="false"
       inkscape:label=""
       inkscape:color="rgb(192,28,40)" /><sodipodi:guide
       position="16.821559,23.8125"
       orientation="0,1"
       id="guide7"
       inkscape:locked="false"
       inkscape:label=""
       inkscape:color="rgb(192,28,40)" /><sodipodi:guide
       position="22.754166,26.26581"
       orientation="-1,0"
       id="guide8"
       inkscape:locked="false"
       inkscape:label=""
       inkscape:color="rgb(0,134,229)" /><sodipodi:guide
       position="24.870833,31.893381"
       orientation="-1,0"
       id="guide9"
       inkscape:locked="false"
       inkscape:label=""
       inkscape:color="rgb(0,134,229)" /><sodipodi:guide
       position="15.34792,22.754166"
       orientation="0,1"
       id="guide11"
       inkscape:locked="false"
       inkscape:label=""
       inkscape:color="rgb(0,134,229)" /><sodipodi:guide
       position="1.0583333,39.119694"
       orientation="-1,0"
       id="guide12"
       inkscape:locked="false"
       inkscape:label=""
       inkscape:color="rgb(0,134,229)" /><sodipodi:guide
       position="46.566666,37.712801"
       orientation="-1,0"
       id="guide13"
       inkscape:locked="false"
       inkscape:label=""
       inkscape:color="rgb(0,134,229)" /><sodipodi:guide
       position="8.7611045,46.566666"
       orientation="0,1"
       id="guide14"
       inkscape:locked="false"
       inkscape:label=""
       inkscape:color="rgb(0,134,229)" /><sodipodi:guide
       position="14.132877,1.0583333"
       orientation="0,1"
       id="guide15"
       inkscape:locked="false"
       inkscape:label=""
       inkscape:color="rgb(0,134,229)" /></sodipodi:namedview><defs
     id="defs1"><linearGradient
       id="linearGradient16"
       inkscape:collect="always"><stop
         style="stop-color:#3e5151;stop-opacity:1;"
         offset="0"
         id="stop16" /><stop
         style="stop-color:#272729;stop-opacity:1;"
         offset="0"
         id="stop17" /></linearGradient><linearGradient
       inkscape:collect="always"
       xlink:href="#linearGradient16"
       id="linearGradient17"
       x1="-3.6175394"
       y1="24.327953"
       x2="52.092571"
       y2="24.327953"
       gradientUnits="userSpaceOnUse"
       gradientTransform="matrix(0.73479536,0,0,0.73845553,2.2850607,2.2610192)" /></defs><g
     inkscape:label="Calque 1"
     inkscape:groupmode="layer"
     id="layer1"><rect
       style="fill:url(#linearGradient17);fill-opacity:1;stroke-width:0.131855"
       id="rect16"
       width="40.935528"
       height="41.005871"
       x="-0.37309068"
       y="-0.27680311" /><rect
       style="fill:#e5e5e5;fill-opacity:1;stroke-width:0.285068"
       id="rect15"
       width="18.507561"
       height="21.028046"
       x="10.647162"
       y="9.1927814" /><path
       d="m 26.555356,21.373226 h -5.377154 v 5.377154 c 0,0.591485 -0.480715,1.075429 -1.07543,1.075429 -0.594715,0 -1.075432,-0.483944 -1.075432,-1.075429 v -5.377154 h -5.37715 c -0.594713,0 -1.075432,-0.483947 -1.075432,-1.075431 0,-0.591486 0.480719,-1.075431 1.075432,-1.075431 h 5.37715 V 13.84521 c 0,-0.591486 0.480717,-1.075429 1.075432,-1.075429 0.594715,0 1.07543,0.483943 1.07543,1.075429 v 5.377154 h 5.377154 c 0.594709,0 1.07543,0.483945 1.07543,1.075431 0,0.591484 -0.480721,1.075431 -1.07543,1.075431 z M 20.102772,3.0909066 c -9.503581,0 -17.2068909,7.7000794 -17.2068909,17.2068884 0,9.506807 7.7033099,17.206886 17.2068909,17.206886 9.503579,0 17.206889,-7.700079 17.206889,-17.206886 0,-9.506809 -7.70331,-17.2068885 -17.206889,-17.2068884 z"
       id="plus-circle"
       sketch:type="MSShapeGroup"
       style="fill:#606060;fill-opacity:1;fill-rule:evenodd;stroke:none;stroke-width:1.07545" /><g
       style="fill:#0e8904;fill-opacity:1"
       id="g1"
       transform="matrix(0.61689684,0,0,0.61689684,23.902947,24.053105)"><rect
         style="fill:#e5e5e5;fill-opacity:1;stroke-width:0.676535"
         id="rect1"
         width="15.023067"
         height="13.286296"
         x="8.4233379"
         y="9.1180468"
         transform="matrix(0.64985745,0,0,0.64985745,1.6022739,1.6410138)" /><path
         fill-rule="evenodd"
         clip-rule="evenodd"
         d="M 22,12 C 22,17.5228 17.5228,22 12,22 6.47715,22 2,17.5228 2,12 2,6.47715 6.47715,2 12,2 17.5228,2 22,6.47715 22,12 Z M 16.0303,8.96967 c 0.2929,0.29289 0.2929,0.76777 0,1.06063 l -5,5 c -0.2929,0.2929 -0.7677,0.2929 -1.06063,0 l -2,-2 c -0.29289,-0.2929 -0.29289,-0.7677 0,-1.0606 0.29289,-0.2929 0.76777,-0.2929 1.06066,0 L 10.5,13.4393 12.7348,11.2045 14.9697,8.96967 c 0.2929,-0.29289 0.7677,-0.29289 1.0606,0 z"
         fill="#1c274c"
         id="path1"
         style="fill:#0c7104;fill-opacity:1" /></g></g></svg>
