<?xml version="1.0" encoding="UTF-8" standalone="no"?>
<!-- Created with Inkscape (http://www.inkscape.org/) -->

<svg
   width="144"
   height="144"
   viewBox="0 0 38.099999 38.1"
   version="1.1"
   id="svg1"
   xml:space="preserve"
   inkscape:export-filename="ios-icon-152px.svg"
   inkscape:export-xdpi="96"
   inkscape:export-ydpi="96"
   xmlns:inkscape="http://www.inkscape.org/namespaces/inkscape"
   xmlns:sodipodi="http://sodipodi.sourceforge.net/DTD/sodipodi-0.dtd"
   xmlns:xlink="http://www.w3.org/1999/xlink"
   xmlns="http://www.w3.org/2000/svg"
   xmlns:svg="http://www.w3.org/2000/svg"
   xmlns:sketch="http://www.bohemiancoding.com/sketch/ns"><sodipodi:namedview
     id="namedview1"
     pagecolor="#ffffff"
     bordercolor="#111111"
     borderopacity="1"
     inkscape:showpageshadow="0"
     inkscape:pageopacity="0"
     inkscape:pagecheckerboard="1"
     inkscape:deskcolor="#d1d1d1"
     inkscape:document-units="px"
     showgrid="false"
     showguides="false"
     inkscape:zoom="3.2251926"
     inkscape:cx="75.654397"
     inkscape:cy="102.16444"
     inkscape:window-width="1920"
     inkscape:window-height="1017"
     inkscape:window-x="1912"
     inkscape:window-y="-8"
     inkscape:window-maximized="1"
     inkscape:current-layer="layer1"><inkscape:grid
       id="grid1"
       units="mm"
       originx="0"
       originy="0"
       spacingx="0.99999998"
       spacingy="1"
       empcolor="#0099e5"
       empopacity="0.30196078"
       color="#0099e5"
       opacity="0.14901961"
       empspacing="5"
       dotted="false"
       gridanglex="30"
       gridanglez="30"
       visible="false" /><sodipodi:guide
       position="0,40.216667"
       orientation="0,180"
       id="guide1"
       inkscape:locked="false" /><sodipodi:guide
       position="47.625,40.216667"
       orientation="180,0"
       id="guide2"
       inkscape:locked="false" /><sodipodi:guide
       position="47.625,-7.4083333"
       orientation="0,-180"
       id="guide3"
       inkscape:locked="false" /><sodipodi:guide
       position="0,-7.4083333"
       orientation="-180,0"
       id="guide4"
       inkscape:locked="false" /><sodipodi:guide
       position="23.8125,26.28914"
       orientation="-1,0"
       id="guide6"
       inkscape:locked="false"
       inkscape:label=""
       inkscape:color="rgb(192,28,40)" /><sodipodi:guide
       position="16.821559,16.404167"
       orientation="0,1"
       id="guide7"
       inkscape:locked="false"
       inkscape:label=""
       inkscape:color="rgb(192,28,40)" /><sodipodi:guide
       position="22.754166,18.857477"
       orientation="-1,0"
       id="guide8"
       inkscape:locked="false"
       inkscape:label=""
       inkscape:color="rgb(0,134,229)" /><sodipodi:guide
       position="24.870833,24.485048"
       orientation="-1,0"
       id="guide9"
       inkscape:locked="false"
       inkscape:label=""
       inkscape:color="rgb(0,134,229)" /><sodipodi:guide
       position="15.34792,15.345833"
       orientation="0,1"
       id="guide11"
       inkscape:locked="false"
       inkscape:label=""
       inkscape:color="rgb(0,134,229)" /><sodipodi:guide
       position="1.0583333,31.711361"
       orientation="-1,0"
       id="guide12"
       inkscape:locked="false"
       inkscape:label=""
       inkscape:color="rgb(0,134,229)" /><sodipodi:guide
       position="46.566666,30.304468"
       orientation="-1,0"
       id="guide13"
       inkscape:locked="false"
       inkscape:label=""
       inkscape:color="rgb(0,134,229)" /><sodipodi:guide
       position="8.7611046,39.158333"
       orientation="0,1"
       id="guide14"
       inkscape:locked="false"
       inkscape:label=""
       inkscape:color="rgb(0,134,229)" /><sodipodi:guide
       position="14.132877,-6.35"
       orientation="0,1"
       id="guide15"
       inkscape:locked="false"
       inkscape:label=""
       inkscape:color="rgb(0,134,229)" /></sodipodi:namedview><defs
     id="defs1"><linearGradient
       id="linearGradient16"
       inkscape:collect="always"><stop
         style="stop-color:#3e5151;stop-opacity:1;"
         offset="0"
         id="stop16" /><stop
         style="stop-color:#272729;stop-opacity:1;"
         offset="0"
         id="stop17" /></linearGradient><linearGradient
       inkscape:collect="always"
       xlink:href="#linearGradient16"
       id="linearGradient17"
       x1="-3.6175394"
       y1="24.327953"
       x2="52.092571"
       y2="24.327953"
       gradientUnits="userSpaceOnUse"
       gradientTransform="matrix(0.6987132,0,0,0.70219363,2.0931288,2.0767232)" /></defs><g
     inkscape:label="Calque 1"
     inkscape:groupmode="layer"
     id="layer1"><rect
       style="fill:url(#linearGradient17);fill-opacity:1;stroke-width:0.12538"
       id="rect16"
       width="38.925381"
       height="38.992279"
       x="-0.43449396"
       y="-0.33647919" /><rect
       style="fill:#e5e5e5;fill-opacity:1;stroke-width:0.27107"
       id="rect15"
       width="17.598747"
       height="19.995462"
       x="10.044609"
       y="8.6681004" /><path
       d="m 25.17163,20.250424 h -5.113108 v 5.113108 c 0,0.562441 -0.457111,1.02262 -1.022622,1.02262 -0.565511,0 -1.022623,-0.460179 -1.022623,-1.02262 v -5.113108 h -5.113106 c -0.565509,0 -1.02262,-0.460181 -1.02262,-1.022621 0,-0.562443 0.457111,-1.022622 1.02262,-1.022622 h 5.113106 v -5.11311 c 0,-0.56244 0.457112,-1.022619 1.022623,-1.022619 0.565511,0 1.022622,0.460179 1.022622,1.022619 v 5.11311 h 5.113108 c 0.565506,0 1.02262,0.460179 1.02262,1.022622 0,0.56244 -0.457114,1.022621 -1.02262,1.022621 z M 19.0359,2.8658589 c -9.0369067,0 -16.3619452,7.3219661 -16.3619452,16.3619441 0,9.039973 7.3250385,16.36194 16.3619452,16.36194 9.036905,0 16.361944,-7.321967 16.361944,-16.36194 0,-9.039978 -7.325039,-16.3619442 -16.361944,-16.3619441 z"
       id="plus-circle"
       sketch:type="MSShapeGroup"
       style="fill:#606060;fill-opacity:1;fill-rule:evenodd;stroke:none;stroke-width:1.02263" /><g
       style="fill:#0e8904;fill-opacity:1"
       id="g1"
       transform="matrix(0.58660408,0,0,0.58660408,22.649467,22.798707)"><rect
         style="fill:#e5e5e5;fill-opacity:1;stroke-width:0.676535"
         id="rect1"
         width="15.023067"
         height="13.286296"
         x="8.4233379"
         y="9.1180468"
         transform="matrix(0.64985745,0,0,0.64985745,1.6022739,1.6410138)" /><path
         fill-rule="evenodd"
         clip-rule="evenodd"
         d="M 22,12 C 22,17.5228 17.5228,22 12,22 6.47715,22 2,17.5228 2,12 2,6.47715 6.47715,2 12,2 17.5228,2 22,6.47715 22,12 Z M 16.0303,8.96967 c 0.2929,0.29289 0.2929,0.76777 0,1.06063 l -5,5 c -0.2929,0.2929 -0.7677,0.2929 -1.06063,0 l -2,-2 c -0.29289,-0.2929 -0.29289,-0.7677 0,-1.0606 0.29289,-0.2929 0.76777,-0.2929 1.06066,0 L 10.5,13.4393 12.7348,11.2045 14.9697,8.96967 c 0.2929,-0.29289 0.7677,-0.29289 1.0606,0 z"
         fill="#1c274c"
         id="path1"
         style="fill:#0c7104;fill-opacity:1" /></g></g></svg>
