<?xml version="1.0" encoding="UTF-8" standalone="no"?>
<!-- Created with Inkscape (http://www.inkscape.org/) -->

<svg
   width="32"
   height="32"
   viewBox="0 0 32 32"
   version="1.1"
   id="svg1"
   xml:space="preserve"
   inkscape:version="1.3.2 (091e20e, 2023-11-25, custom)"
   sodipodi:docname="icon.svg"
   xmlns:inkscape="http://www.inkscape.org/namespaces/inkscape"
   xmlns:sodipodi="http://sodipodi.sourceforge.net/DTD/sodipodi-0.dtd"
   xmlns="http://www.w3.org/2000/svg"
   xmlns:svg="http://www.w3.org/2000/svg"><sodipodi:namedview
     id="namedview1"
     pagecolor="#ffffff"
     bordercolor="#111111"
     borderopacity="1"
     inkscape:showpageshadow="0"
     inkscape:pageopacity="0"
     inkscape:pagecheckerboard="1"
     inkscape:deskcolor="#d1d1d1"
     inkscape:document-units="px"
     inkscape:zoom="11.515625"
     inkscape:cx="13.242877"
     inkscape:cy="16.890095"
     inkscape:window-width="1920"
     inkscape:window-height="1017"
     inkscape:window-x="1912"
     inkscape:window-y="-8"
     inkscape:window-maximized="1"
     inkscape:current-layer="g1" /><defs
     id="defs1" /><g
     inkscape:label="Calque 1"
     inkscape:groupmode="layer"
     id="layer1"><g
       style="fill:#0e8904;fill-opacity:1"
       id="g1"
       transform="matrix(1.538799,0,0,1.538799,-2.4655774,-2.5251904)"><rect
         style="fill:#ffffff;fill-opacity:1;stroke-width:0.676535"
         id="rect1"
         width="15.023067"
         height="13.286296"
         x="8.4233379"
         y="9.1180468"
         transform="matrix(0.64985745,0,0,0.64985745,1.6022739,1.6410138)" /><path
         fill-rule="evenodd"
         clip-rule="evenodd"
         d="M 22,12 C 22,17.5228 17.5228,22 12,22 6.47715,22 2,17.5228 2,12 2,6.47715 6.47715,2 12,2 17.5228,2 22,6.47715 22,12 Z M 16.0303,8.96967 c 0.2929,0.29289 0.2929,0.76777 0,1.06063 l -5,5 c -0.2929,0.2929 -0.7677,0.2929 -1.06063,0 l -2,-2 c -0.29289,-0.2929 -0.29289,-0.7677 0,-1.0606 0.29289,-0.2929 0.76777,-0.2929 1.06066,0 L 10.5,13.4393 12.7348,11.2045 14.9697,8.96967 c 0.2929,-0.29289 0.7677,-0.29289 1.0606,0 z"
         fill="#1c274c"
         id="path1"
         style="fill:#0b6604;fill-opacity:1" /></g></g></svg>
